<svg xmlns="http://www.w3.org/2000/svg" viewBox="0 0 24 24">
  <path d="M7.17 11.04L5.5 15.5H4l-1.5-4.46h1.1L4.75 14l1.1-2.96h.98l1.1 2.96 1.15-2.96h1.1L8.67 15.5H7.17zm6.7 1.5c0-.45-.3-.7-.9-.7h-.8v1.4h.8c.6 0 .9-.25.9-.7zm1.06 0c0 .96-.7 1.6-1.96 1.6h-.8V15.5h-1.08v-4.46h1.88c1.26 0 1.96.64 1.96 1.5zM18.5 12.7c-.1-.55-.6-.92-1.12-.92-.6 0-1.05.42-1.05 1.02 0 .6.47 1 1.1 1 .52 0 .98-.35 1.07-.9h1.1c-.12 1.06-.96 1.78-2.17 1.78-1.24 0-2.16-.85-2.16-1.88s.9-1.9 2.16-1.9c1.2 0 2.07.7 2.17 1.8zm1.98 4.4c-3.05 1.4-7.45 1.7-10.98 0-.23-.1-.44.1-.3.3.4.5 1.2.83 2.33 1.1 2.56.63 5.2.44 7.12-.1 1.1-.3 1.86-.65 2.22-1.1.13-.2-.08-.4-.4-.2zM20 18c-.4.35-.9.63-1.53.85A13.5 13.5 0 0 1 10 19a13.6 13.6 0 0 1-3.6-1.1.12.12 0 0 0-.1.2c.8.48 2.2 1 3.96 1.27 2.6.36 5.2-.1 7.16-.9.9-.38 1.54-.8 1.9-1.25a.13.13 0 0 0-.1-.2z" fill="#FF9900"/>
</svg>
