<?xml version="1.0" encoding="UTF-8"?>
<!DOCTYPE svg PUBLIC "-//W3C//DTD SVG 1.1//EN" "http://www.w3.org/Graphics/SVG/1.1/DTD/svg11.dtd">
<svg xmlns="http://www.w3.org/2000/svg" version="1.1" width="512px" height="512px" style="shape-rendering:geometricPrecision; text-rendering:geometricPrecision; image-rendering:optimizeQuality; fill-rule:evenodd; clip-rule:evenodd" xmlns:xlink="http://www.w3.org/1999/xlink">
<g><path style="opacity:1" fill="#2bd3bd" d="M 200.5,-0.5 C 207.5,-0.5 214.5,-0.5 221.5,-0.5C 235.302,2.66181 246.469,9.99514 255,21.5C 263.682,10.3068 274.849,2.97346 288.5,-0.5C 295.833,-0.5 303.167,-0.5 310.5,-0.5C 334.125,5.12509 348.792,19.7918 354.5,43.5C 382.315,39.929 404.149,49.5957 420,72.5C 428.165,86.0604 430.665,100.56 427.5,116C 458.41,137.703 469.91,167.203 462,204.5C 459.207,214.254 454.707,223.088 448.5,231C 478.99,254.119 490.823,284.619 484,322.5C 477.858,348.811 463.024,368.478 439.5,381.5C 438.816,422.738 419.15,450.238 380.5,464C 370.65,489.685 352.317,505.518 325.5,511.5C 317.5,511.5 309.5,511.5 301.5,511.5C 281.896,507.572 266.563,497.239 255.5,480.5C 244.13,496.842 228.796,507.176 209.5,511.5C 201.5,511.5 193.5,511.5 185.5,511.5C 158.121,506.296 139.787,490.463 130.5,464C 103.566,456.065 85.399,438.898 76,412.5C 73.3917,402.334 71.8917,392.001 71.5,381.5C 41.5504,364.292 25.8838,338.292 24.5,303.5C 25.4773,273.21 37.8106,248.876 61.5,230.5C 45.1753,206.192 42.0086,180.192 52,152.5C 58.0354,137.631 67.8687,125.965 81.5,117.5C 78.4847,86.0248 90.818,62.8582 118.5,48C 130.717,42.774 143.384,41.274 156.5,43.5C 162.198,19.8018 176.865,5.13511 200.5,-0.5 Z M 202.5,20.5 C 223.918,18.117 237.751,27.117 244,47.5C 244.5,61.496 244.667,75.496 244.5,89.5C 239.821,89.6658 235.155,89.4992 230.5,89C 220.852,71.2271 206.519,65.8937 187.5,73C 173.039,82.0347 168.205,94.868 173,111.5C 181.269,127.937 194.435,133.77 212.5,129C 221.167,125.667 227.167,119.667 230.5,111C 235.155,110.501 239.821,110.334 244.5,110.5C 244.5,127.5 244.5,144.5 244.5,161.5C 224.489,161.833 204.489,161.5 184.5,160.5C 177.162,146.835 165.828,140.501 150.5,141.5C 145.336,131.834 139.669,122.5 133.5,113.5C 132.5,113 131.5,112.5 130.5,112C 121.506,111.5 112.506,111.334 103.5,111.5C 101.558,89.8902 110.558,74.7235 130.5,66C 134.93,64.7807 139.43,63.9473 144,63.5C 151.384,64.3045 158.55,65.9712 165.5,68.5C 169.528,68.4374 172.695,66.7707 175,63.5C 173.667,42.1108 182.834,27.7775 202.5,20.5 Z M 292.5,20.5 C 316.101,18.1815 329.934,28.5148 334,51.5C 324.568,57.5973 317.235,65.5973 312,75.5C 310.5,86 315,90.5 325.5,89C 330.811,84.0207 335.811,78.6874 340.5,73C 357.833,60.3333 375.167,60.3333 392.5,73C 405.645,84.7707 410.145,99.2707 406,116.5C 404.112,121.945 401.445,126.945 398,131.5C 392.975,135.862 387.975,140.196 383,144.5C 380.617,156.573 385.45,161.406 397.5,159C 407,153.5 414.5,146 420,136.5C 441.687,154.233 448.354,176.566 440,203.5C 437.623,209.762 434.123,215.262 429.5,220C 425.754,219.206 421.92,218.373 418,217.5C 408.971,218.534 405.638,223.534 408,232.5C 408.465,233.931 409.299,235.097 410.5,236C 455.516,251.53 472.016,282.364 460,328.5C 447.926,355.389 427.093,369.389 397.5,370.5C 390.757,370.557 384.09,369.891 377.5,368.5C 367.34,370.473 364.507,376.139 369,385.5C 370.579,387.041 372.413,388.208 374.5,389C 388.679,392.079 402.846,392.245 417,389.5C 415.495,413.689 403.662,430.855 381.5,441C 368.826,445.042 355.993,445.542 343,442.5C 333.831,444.33 330.831,449.664 334,458.5C 335.543,460.378 337.376,461.878 339.5,463C 345.075,464.515 350.742,465.515 356.5,466C 338.457,491.928 315.457,497.594 287.5,483C 273.972,473.783 266.806,460.95 266,444.5C 265.667,395.167 265.333,345.833 265,296.5C 261.723,290.891 256.89,289.058 250.5,291C 247.047,292.728 245.214,295.562 245,299.5C 244.5,307.493 244.334,315.493 244.5,323.5C 234.478,323.832 224.478,323.499 214.5,322.5C 210.581,316.33 206.914,309.997 203.5,303.5C 214.408,286.219 212.075,271.053 196.5,258C 189.695,254.164 182.362,252.497 174.5,253C 169.085,243.5 163.418,234.167 157.5,225C 156.167,224.333 154.833,223.667 153.5,223C 129.833,222.667 106.167,222.333 82.5,222C 67.1699,204.494 63.3366,184.66 71,162.5C 75.9114,149.587 84.4114,139.754 96.5,133C 104.5,132.333 112.5,132.333 120.5,133C 124.752,139.501 128.752,146.168 132.5,153C 121.983,168.968 123.65,183.635 137.5,197C 147.622,203.077 158.289,204.077 169.5,200C 176.417,196.249 181.417,190.749 184.5,183.5C 204.489,182.5 224.489,182.167 244.5,182.5C 244.334,192.172 244.5,201.839 245,211.5C 246.887,219.867 252.054,222.7 260.5,220C 262.378,218.457 263.878,216.624 265,214.5C 265.333,160.833 265.667,107.167 266,53.5C 267.752,36.5957 276.585,25.5957 292.5,20.5 Z M 199.5,90.5 C 208.666,91.2196 212.166,95.8863 210,104.5C 207.413,109.068 203.579,110.568 198.5,109C 193.268,106.367 191.435,102.201 193,96.5C 194.494,93.6865 196.66,91.6865 199.5,90.5 Z M 155.5,162.5 C 165.952,165.554 167.952,171.387 161.5,180C 153.227,183.365 148.227,180.698 146.5,172C 147.658,167.01 150.658,163.844 155.5,162.5 Z M 81.5,243.5 C 102.503,243.333 123.503,243.5 144.5,244C 148.248,250.832 152.248,257.499 156.5,264C 149.036,273.918 147.536,284.751 152,296.5C 158.645,309.822 169.312,315.489 184,313.5C 190.064,322.57 195.731,331.903 201,341.5C 201.903,342.701 203.069,343.535 204.5,344C 217.829,344.5 231.163,344.667 244.5,344.5C 244.975,381.548 244.475,418.548 243,455.5C 232.497,484.003 212.331,495.17 182.5,489C 164.267,482.399 153.101,469.566 149,450.5C 148.215,448.714 147.049,447.214 145.5,446C 112.715,439.562 95.3821,419.729 93.5,386.5C 115.503,386.333 137.503,386.5 159.5,387C 163.405,393.395 167.072,399.895 170.5,406.5C 161.735,421.389 162.735,435.555 173.5,449C 186.37,458.143 199.704,458.81 213.5,451C 226.272,438.471 228.439,424.304 220,408.5C 212.074,398.641 201.908,394.474 189.5,396C 184.793,387.419 179.96,378.919 175,370.5C 173.457,368.622 171.624,367.122 169.5,366C 141.5,365.667 113.5,365.333 85.5,365C 63.9972,354.324 50.9972,337.157 46.5,313.5C 53.1998,313.17 59.8665,313.503 66.5,314.5C 75.6169,332.045 89.6169,337.545 108.5,331C 123.413,322.288 128.58,309.455 124,292.5C 116.322,276.912 103.822,270.745 86.5,274C 77.3155,277.184 70.6488,283.184 66.5,292C 59.8085,292.831 53.1418,292.664 46.5,291.5C 51.3253,270.365 62.9919,254.365 81.5,243.5 Z M 176.5,274.5 C 186.746,274.015 190.579,278.681 188,288.5C 181.445,295.314 175.778,294.647 171,286.5C 169.873,281.089 171.707,277.089 176.5,274.5 Z M 94.5,293.5 C 103.112,295.27 105.945,300.27 103,308.5C 99.1457,312.671 94.6457,313.504 89.5,311C 83.703,303.083 85.3697,297.25 94.5,293.5 Z M 193.5,416.5 C 203.429,418.138 206.262,423.471 202,432.5C 195.597,437.157 190.263,436.157 186,429.5C 184.91,423.005 187.41,418.671 193.5,416.5 Z"/></g>
<!-- Left-side circuit nodes — purple -->
<g><circle cx="201" cy="100" r="12" fill="#8b5cf6"/></g>
<g><circle cx="156" cy="172" r="12" fill="#8b5cf6"/></g>
<g><circle cx="180" cy="284" r="11" fill="#8b5cf6"/></g>
<g><circle cx="95" cy="303" r="12" fill="#8b5cf6"/></g>
<g><circle cx="195" cy="427" r="12" fill="#8b5cf6"/></g>
<g><path style="opacity:1" fill="#2bd3bd" d="M 287.5,104.5 C 289.857,104.337 292.19,104.503 294.5,105C 298.898,108.394 303.565,111.394 308.5,114C 322.359,118.494 334.359,115.494 344.5,105C 356.795,103.435 361.295,108.602 358,120.5C 340.127,137.772 319.627,141.605 296.5,132C 290.848,129.25 286.014,125.417 282,120.5C 279.059,113.406 280.892,108.072 287.5,104.5 Z"/></g>
<g><path style="opacity:1" fill="#2bd3bd" d="M 356.5,188.5 C 368.843,187.338 373.343,192.671 370,204.5C 356,219.833 356,235.167 370,250.5C 372.912,263.92 367.746,268.754 354.5,265C 338.366,247.662 334.533,227.829 343,205.5C 346.087,198.631 350.587,192.965 356.5,188.5 Z"/></g>
<g><path style="opacity:1" fill="#8b5cf6" d="M 250.5,245.5 C 261.437,243.938 266.27,248.605 265,259.5C 264.226,261.939 262.726,263.773 260.5,265C 248.205,267.372 243.372,262.539 246,250.5C 247.366,248.638 248.866,246.972 250.5,245.5 Z"/></g>
<g><path style="opacity:1" fill="#2bd3bd" d="M 335.5,324.5 C 346.682,323.837 351.182,328.837 349,339.5C 348.535,340.931 347.701,342.097 346.5,343C 330.402,347.877 323.735,358.544 326.5,375C 325.492,384.019 320.492,387.352 311.5,385C 307.414,382.335 305.247,378.502 305,373.5C 303.177,349.527 313.344,333.194 335.5,324.5 Z"/></g>
</svg>
